/* XPM */
static char * bitcoin32_xpm[] = {
"32 32 61 1",
" 	c None",
".	c #111316",
"+	c #202225",
"@	c #A6A7A8",
"#	c #5B5D5F",
"$	c #88898B",
"%	c #F0F0F0",
"&	c #FFFFFF",
"*	c #C4C4C5",
"=	c #3E3F42",
"-	c #4D4E50",
";	c #E1E2E2",
">	c #979899",
",	c #2F3133",
"'	c #937CA3",
")	c #402655",
"!	c #464E65",
"~	c #E3E9F9",
"{	c #B5B5B6",
"]	c #47295E",
"^	c #7D3FA5",
"/	c #703A93",
"(	c #2C1E3A",
"_	c #3F4F7A",
":	c #6C8ADD",
"<	c #ACBDEC",
"[	c #F6F8FD",
"}	c #D2D3D3",
"|	c #5B3178",
"1	c #1F1928",
"2	c #7591DF",
"3	c #C8D3F2",
"4	c #6A6C6D",
"5	c #7482A7",
"6	c #22233C",
"7	c #554599",
"8	c #7A40A6",
"9	c #39476D",
"0	c #191B29",
"a	c #434289",
"b	c #5351AF",
"c	c #5650AE",
"d	c #6B47A9",
"e	c #283148",
"f	c #617BC4",
"g	c #151720",
"h	c #36366C",
"i	c #5B4EAD",
"j	c #7344A8",
"k	c #6683D1",
"l	c #2E2E59",
"m	c #4F4DA5",
"n	c #474592",
"o	c #231C31",
"p	c #171A22",
"q	c #3F447E",
"r	c #2A2A4F",
"s	c #1D1F33",
"t	c #323263",
"u	c #262646",
"v	c #4B499C",
"                                ",
"             ......             ",
"          ............          ",
"        ................        ",
"       ...................      ",
"     ......................     ",
"    ........................    ",
"    .........+@#............    ",
"   .........$%&&*=...........   ",
"  ........-;&&&&&&>+..........  ",
"  ......,*&&&&&&&&%').........  ",
"  .....!~&&&&&&&&{,]^/(.......  ",
" ......_:<[&&&&}-..]^^^|1...... ",
" ......_::23&%4....]^^^^]...... ",
" ......_::::5+.....]^^^^]...... ",
" ......_::::_......]^^^^]...... ",
" ......_::::_......]^^^^]...... ",
" ......_::::_......]^^^^]...... ",
" ......_::::_.....678^^^]...... ",
" ......9::::_...0abbcd^^]...... ",
" .......ef::_.ghbbbbbbij]...... ",
"  ........9k_lmbbbbbbbbno.....  ",
"  .........pqbbbbbbbbmr.......  ",
"   ..........sabbbbbtg.......   ",
"   ............uvba0.........   ",
"    ............gs..........    ",
"     ......................     ",
"      ....................      ",
"       ..................       ",
"         ...............        ",
"           ..........           ",
"               ..               "};
