/* XPM */
static char * bitcoin64_xpm[] = {
"64 64 73 1",
" 	c None",
".	c #111316",
"+	c #6A6C6D",
"@	c #D2D3D3",
"#	c #797A7C",
"$	c #4D4E50",
"%	c #C4C4C5",
"&	c #FFFFFF",
"*	c #202225",
"=	c #A6A7A8",
"-	c #B5B5B6",
";	c #2F3133",
">	c #88898B",
",	c #F0F0F0",
"'	c #5B5D5F",
")	c #E1E2E2",
"!	c #3E3F42",
"~	c #36333C",
"{	c #979899",
"]	c #714390",
"^	c #552F6F",
"/	c #18161F",
"(	c #623481",
"_	c #7D3FA5",
":	c #763C9C",
"<	c #47295E",
"[	c #AAB6D5",
"}	c #703A93",
"|	c #2C1E3A",
"1	c #6C8ADD",
"2	c #88A0E3",
"3	c #DAE2F7",
"4	c #1F1928",
"5	c #9AAFE8",
"6	c #EDF0FB",
"7	c #4E2C66",
"8	c #7591DF",
"9	c #B6C5EE",
"0	c #251B31",
"a	c #7E99E1",
"b	c #323263",
"c	c #5F46A2",
"d	c #7A40A6",
"e	c #22233C",
"f	c #4B499C",
"g	c #5351AF",
"h	c #5650AE",
"i	c #6D46A9",
"j	c #191B29",
"k	c #434289",
"l	c #5E4DAD",
"m	c #7542A7",
"n	c #334061",
"o	c #617BC4",
"p	c #151720",
"q	c #36366C",
"r	c #6549AB",
"s	c #171A22",
"t	c #3F4F7A",
"u	c #6683D1",
"v	c #2E2E59",
"w	c #4F4DA5",
"x	c #1C222F",
"y	c #50659F",
"z	c #474592",
"A	c #283148",
"B	c #5B74B8",
"C	c #3E3E7F",
"D	c #435283",
"E	c #262646",
"F	c #3A3A76",
"G	c #1D1F33",
"H	c #2A2A4F",
"                                                                ",
"                         ...............                        ",
"                     ......................                     ",
"                   ..........................                   ",
"                 ..............................                 ",
"               ..................................               ",
"              .....................................             ",
"            ........................................            ",
"           ..........................................           ",
"          ............................................          ",
"         ..............................................         ",
"        ................................................        ",
"       ..................................................       ",
"       ...................................................      ",
"      ......................+@#...........................      ",
"     .....................$%&&&@$..........................     ",
"     ...................*=&&&&&&&-;.........................    ",
"    ...................>,&&&&&&&&&&>*.......................    ",
"    .................')&&&&&&&&&&&&&)+.......................   ",
"   ................!%&&&&&&&&&&&&&&&&&%~.....................   ",
"   ..............*{&&&&&&&&&&&&&&&&&&&=]^/....................  ",
"  ..............#,&&&&&&&&&&&&&&&&&&@$.(_:<...................  ",
"  .............[&&&&&&&&&&&&&&&&&&,+...(___}|.................  ",
"  .............123&&&&&&&&&&&&&&&>*....(_____(4................ ",
" ..............11156&&&&&&&&&&&-;......(_______7/.............. ",
" ..............111189&&&&&&&&)$........(________:0............. ",
" ..............111111a3&&&&,#..........(_________|............. ",
" ..............1111111156&{*...........(_________|............. ",
" ..............1111111118;.............(_________|..............",
" ..............1111111111..............(_________|..............",
"...............1111111111..............(_________|..............",
"...............1111111111..............(_________|..............",
"...............1111111111..............(_________|..............",
"...............1111111111..............(_________|..............",
"...............1111111111..............(_________|..............",
" ..............1111111111..............(_________|..............",
" ..............1111111111.............bcd________|..............",
" ..............1111111111...........efgghi_______|............. ",
" ..............1111111111.........jkgggggglm_____|............. ",
" ..............no11111111.......pqggggggggggrd___|............. ",
"  ..............stu111111......vwgggggggggggghi__|............. ",
"  ................xy11111....ezgggggggggggggggglm|............  ",
"  ..................AB111..jCgggggggggggggggggggqp............  ",
"   ...................nu1pbgggggggggggggggggggkj..............  ",
"   ....................sDwggggggggggggggggggfe...............   ",
"   ......................jkgggggggggggggggwv.................   ",
"    .......................EfggggggggggggFp.................    ",
"    .........................bwggggggggkG...................    ",
"     .........................pFgggggfE....................     ",
"      ..........................ekgwb......................     ",
"      ............................Hj......................      ",
"       ..................................................       ",
"        .................................................       ",
"         ...............................................        ",
"          .............................................         ",
"           ...........................................          ",
"            .........................................           ",
"             ......................................             ",
"              ....................................              ",
"                ................................                ",
"                  .............................                 ",
"                    ........................                    ",
"                       ...................                      ",
"                           ...........                          "};
