/* XPM */
static char * bitcoin16_xpm[] = {
"16 16 36 1",
" 	c None",
".	c #111316",
"+	c #3E3F42",
"@	c #2F3133",
"#	c #A6A7A8",
"$	c #FFFFFF",
"%	c #E1E2E2",
"&	c #4D4E50",
"*	c #70737A",
"=	c #F0F0F0",
"-	c #C4C4C5",
";	c #5B3178",
">	c #1F1928",
",	c #556CAB",
"'	c #A3B6EA",
")	c #F6F8FD",
"!	c #5B5D5F",
"~	c #7D3FA5",
"{	c #332143",
"]	c #6C8ADD",
"^	c #647BBA",
"/	c #47295E",
"(	c #1D1F33",
"_	c #434289",
":	c #6B47A9",
"<	c #1C222F",
"[	c #50659F",
"}	c #5970B5",
"|	c #3A3A76",
"1	c #5351AF",
"2	c #5B4EAD",
"3	c #34264D",
"4	c #23263F",
"5	c #474592",
"6	c #2A2A4F",
"7	c #262646",
"                ",
"      .....     ",
"    .........   ",
"   ....+......  ",
"  ...@#$%&....  ",
"  ..*=$$$-;>... ",
" ...,')%!.~~{.. ",
" ...,]^...~~/...",
" ...,],...~~/...",
" ...,],.(_:~/.. ",
"  ..<[}|11123.. ",
"  ....4511_(... ",
"   .....67....  ",
"    .........   ",
"     .......    ",
"                "};
