/* XPM */
static char * bitcoin128_xpm[] = {
"128 128 86 1",
" 	c None",
".	c #111316",
"+	c #2F3133",
"@	c #202225",
"#	c #979899",
"$	c #FFFFFF",
"%	c #F0F0F0",
"&	c #88898B",
"*	c #797A7C",
"=	c #E1E2E2",
"-	c #4D4E50",
";	c #C4C4C5",
">	c #6A6C6D",
",	c #D2D3D3",
"'	c #B5B5B6",
")	c #A6A7A8",
"!	c #9C91A5",
"~	c #402655",
"{	c #2C1E3A",
"]	c #7D3FA5",
"^	c #703A93",
"/	c #5B5D5F",
"(	c #623481",
"_	c #1F1928",
":	c #3E3F42",
"<	c #47295E",
"[	c #18161F",
"}	c #763C9C",
"|	c #3A244C",
"1	c #2B313D",
"2	c #CBD3E8",
"3	c #69378A",
"4	c #283148",
"5	c #6C8ADD",
"6	c #9AAFE8",
"7	c #EDF0FB",
"8	c #552F6F",
"9	c #7591DF",
"0	c #B6C5EE",
"a	c #7E99E1",
"b	c #DAE2F7",
"c	c #332143",
"d	c #251B31",
"e	c #5C6C97",
"f	c #3F4F7A",
"g	c #262646",
"h	c #4D489B",
"i	c #7045A8",
"j	c #1D1F33",
"k	c #434289",
"l	c #5351AF",
"m	c #5E4DAD",
"n	c #7841A6",
"o	c #151720",
"p	c #3A3A76",
"q	c #6848AA",
"r	c #7A40A6",
"s	c #323263",
"t	c #4F4DA5",
"u	c #584FAE",
"v	c #22233C",
"w	c #4B499C",
"x	c #22293B",
"y	c #191B29",
"z	c #556CAB",
"A	c #36366C",
"B	c #5650AE",
"C	c #6D46A9",
"D	c #334061",
"E	c #617BC4",
"F	c #2E2E59",
"G	c #7542A7",
"H	c #171A22",
"I	c #474592",
"J	c #6549AB",
"K	c #1C222F",
"L	c #50659F",
"M	c #3E3E7F",
"N	c #5B74B8",
"O	c #39476D",
"P	c #6683D1",
"Q	c #2A2A4F",
"R	c #442A5E",
"S	c #445686",
"T	c #4A5D92",
"U	c #4B5A96",
"                                                                                                                                ",
"                                                        ................                                                        ",
"                                                  ............................                                                  ",
"                                              ....................................                                              ",
"                                           ..........................................                                           ",
"                                         ...............................................                                        ",
"                                      ....................................................                                      ",
"                                    ........................................................                                    ",
"                                  ............................................................                                  ",
"                                 ...............................................................                                ",
"                               ..................................................................                               ",
"                             ......................................................................                             ",
"                            ........................................................................                            ",
"                          ............................................................................                          ",
"                         ..............................................................................                         ",
"                        ................................................................................                        ",
"                       ...................................................................................                      ",
"                      .....................................................................................                     ",
"                     .......................................................................................                    ",
"                   ..........................................................................................                   ",
"                   ...........................................................................................                  ",
"                  .............................................................................................                 ",
"                 ...............................................................................................                ",
"                ................................................................................................                ",
"               ..................................................................................................               ",
"              ....................................................................................................              ",
"             ......................................................................................................             ",
"             .............................................+@........................................................            ",
"            ............................................@#$%&.......................................................            ",
"           ............................................*%$$$$=-......................................................           ",
"           ..........................................-=$$$$$$$$;+.....................................................          ",
"          .........................................+;$$$$$$$$$$$$#@...................................................          ",
"         ........................................@&$$$$$$$$$$$$$$$%*...................................................         ",
"         .......................................>%$$$$$$$$$$$$$$$$$$,-.................................................         ",
"        ......................................-,$$$$$$$$$$$$$$$$$$$$$$'+................................................        ",
"        ....................................+'$$$$$$$$$$$$$$$$$$$$$$$$$$&@..............................................        ",
"       ...................................@&%$$$$$$$$$$$$$$$$$$$$$$$$$$$$=>..............................................       ",
"       ..................................>=$$$$$$$$$$$$$$$$$$$$$$$$$$$$$$$$;-............................................       ",
"      .................................-;$$$$$$$$$$$$$$$$$$$$$$$$$$$$$$$$$$$$)@...........................................      ",
"      ...............................@)$$$$$$$$$$$$$$$$$$$$$$$$$$$$$$$$$$$$$$$!~..........................................      ",
"      ..............................&%$$$$$$$$$$$$$$$$$$$$$$$$$$$$$$$$$$$$$$,-{]^{.........................................     ",
"     ............................./=$$$$$$$$$$$$$$$$$$$$$$$$$$$$$$$$$$$$$$%>..{]]](_.......................................     ",
"     ...........................:;$$$$$$$$$$$$$$$$$$$$$$$$$$$$$$$$$$$$$$$&@...{]]]]]<[.....................................     ",
"    ..........................@#$$$$$$$$$$$$$$$$$$$$$$$$$$$$$$$$$$$$$$$'+.....{]]]]]]}|.....................................    ",
"    .........................12$$$$$$$$$$$$$$$$$$$$$$$$$$$$$$$$$$$$$$=-.......{]]]]]]]]3{...................................    ",
"    .........................4567$$$$$$$$$$$$$$$$$$$$$$$$$$$$$$$$$$%*.........{]]]]]]]]]]8_.................................    ",
"   ..........................45590$$$$$$$$$$$$$$$$$$$$$$$$$$$$$$$$#@..........{]]]]]]]]]]]}<[................................   ",
"   ..........................45555ab$$$$$$$$$$$$$$$$$$$$$$$$$$$$;+............{]]]]]]]]]]]]]^c...............................   ",
"   ..........................455555567$$$$$$$$$$$$$$$$$$$$$$$$=/..............{]]]]]]]]]]]]]]](d.............................   ",
"   ..........................4555555590$$$$$$$$$$$$$$$$$$$$$%&................{]]]]]]]]]]]]]]]]]8[............................  ",
"  ...........................4555555555ab$$$$$$$$$$$$$$$$$$)@.................{]]]]]]]]]]]]]]]]]]}c...........................  ",
"  ...........................45555555555567$$$$$$$$$$$$$$;:...................{]]]]]]]]]]]]]]]]]]]<...........................  ",
"  ...........................455555555555590$$$$$$$$$$$=/.....................{]]]]]]]]]]]]]]]]]]]<...........................  ",
"  ...........................455555555555555ab$$$$$$$%&@......................{]]]]]]]]]]]]]]]]]]]<...........................  ",
"  ...........................4555555555555555567$$$$)+........................{]]]]]]]]]]]]]]]]]]]<............................ ",
"  ...........................45555555555555555590$;-..........................{]]]]]]]]]]]]]]]]]]]<............................ ",
" ............................45555555555555555555e............................{]]]]]]]]]]]]]]]]]]]<............................ ",
" ............................45555555555555555555f............................{]]]]]]]]]]]]]]]]]]]<............................ ",
" ............................45555555555555555555f............................{]]]]]]]]]]]]]]]]]]]<............................ ",
" ............................45555555555555555555f............................{]]]]]]]]]]]]]]]]]]]<............................ ",
" ............................45555555555555555555f............................{]]]]]]]]]]]]]]]]]]]<............................ ",
" ............................45555555555555555555f............................{]]]]]]]]]]]]]]]]]]]<............................ ",
" ............................45555555555555555555f............................{]]]]]]]]]]]]]]]]]]]<............................ ",
" ............................45555555555555555555f............................{]]]]]]]]]]]]]]]]]]]<............................ ",
" ............................45555555555555555555f............................{]]]]]]]]]]]]]]]]]]]<............................ ",
" ............................45555555555555555555f............................{]]]]]]]]]]]]]]]]]]]<............................ ",
" ............................45555555555555555555f............................{]]]]]]]]]]]]]]]]]]]<............................ ",
" ............................45555555555555555555f............................{]]]]]]]]]]]]]]]]]]]<............................ ",
" ............................45555555555555555555f............................{]]]]]]]]]]]]]]]]]]]<............................ ",
" ............................45555555555555555555f............................{]]]]]]]]]]]]]]]]]]]<............................ ",
" ............................45555555555555555555f............................{]]]]]]]]]]]]]]]]]]]<............................ ",
" ............................45555555555555555555f............................{]]]]]]]]]]]]]]]]]]]<............................ ",
" ............................45555555555555555555f...........................ghi]]]]]]]]]]]]]]]]]]<............................ ",
"  ...........................45555555555555555555f.........................jklllmn]]]]]]]]]]]]]]]]<............................ ",
"  ...........................45555555555555555555f.......................oplllllllqr]]]]]]]]]]]]]]<...........................  ",
"  ...........................45555555555555555555f......................stlllllllllui]]]]]]]]]]]]]<...........................  ",
"  ...........................45555555555555555555f....................vwlllllllllllllmn]]]]]]]]]]]<...........................  ",
"  ...........................x5555555555555555555f..................yklllllllllllllllllqr]]]]]]]]]<...........................  ",
"   ...........................4z55555555555555555f................oAllllllllllllllllllllBC]]]]]]]]<...........................  ",
"   .............................DE555555555555555f...............FtlllllllllllllllllllllllmG]]]]]]<..........................   ",
"   ..............................Hf55555555555555f.............vIlllllllllllllllllllllllllllJr]]]]<..........................   ",
"   ................................KL555555555555f...........yMllllllllllllllllllllllllllllllBC]]]<..........................   ",
"    .................................4N5555555555f.........osllllllllllllllllllllllllllllllllllmG]<..........................   ",
"    ...................................OP55555555f........QtlllllllllllllllllllllllllllllllllllllJR.........................    ",
"    ....................................HS5555555f......vkllllllllllllllllllllllllllllllllllllllts..........................    ",
"     .....................................Kz55555f....yplllllllllllllllllllllllllllllllllllllllpy...........................    ",
"     .......................................4E555f..ostllllllllllllllllllllllllllllllllllllllkv............................     ",
"     .........................................fP5f.gwllllllllllllllllllllllllllllllllllllllwQ..............................     ",
"      .........................................HTUklllllllllllllllllllllllllllllllllllllllso..............................      ",
"      ...........................................vIlllllllllllllllllllllllllllllllllllllMy................................      ",
"       ............................................QtlllllllllllllllllllllllllllllllllIv..................................      ",
"       .............................................oslllllllllllllllllllllllllllllltQ...................................       ",
"        ..............................................yMlllllllllllllllllllllllllllAo....................................       ",
"        ................................................vwlllllllllllllllllllllllky.....................................        ",
"         .................................................Ftlllllllllllllllllllwv.......................................        ",
"         ..................................................oAlllllllllllllllltF........................................         ",
"          ...................................................jklllllllllllllpo........................................          ",
"           ....................................................gwlllllllllkj..........................................          ",
"           ......................................................stlllllwg...........................................           ",
"            ......................................................opllts............................................            ",
"            ........................................................vAo.............................................            ",
"             ......................................................................................................             ",
"              ....................................................................................................              ",
"               ...................................................................................................              ",
"                .................................................................................................               ",
"                ................................................................................................                ",
"                 ..............................................................................................                 ",
"                  ............................................................................................                  ",
"                   ..........................................................................................                   ",
"                    ........................................................................................                    ",
"                     ......................................................................................                     ",
"                      ....................................................................................                      ",
"                       ..................................................................................                       ",
"                         ...............................................................................                        ",
"                          ............................................................................                          ",
"                           ..........................................................................                           ",
"                             ......................................................................                             ",
"                              ....................................................................                              ",
"                                ................................................................                                ",
"                                  .............................................................                                 ",
"                                    .........................................................                                   ",
"                                      .....................................................                                     ",
"                                        ................................................                                        ",
"                                          ............................................                                          ",
"                                             ......................................                                             ",
"                                                 ..............................                                                 ",
"                                                      .....................                                                     ",
"                                                                                                                                "};
