<svg xmlns="http://www.w3.org/2000/svg" viewBox="0 0 33.57 22" width="1in" height="1in">
<path fill="#84cfc8" d="M3.55,9.88H3.49a.42.42,0,0,1-.37-.46,6.77,6.77,0,0,1,9.82-5.26,5.94,5.94,0,0,1,.87.53.41.41,0,0,1,.09.58.42.42,0,0,1-.58.1,5.35,5.35,0,0,0-.76-.47,6,6,0,0,0-8,2.58,5.82,5.82,0,0,0-.61,2A.42.42,0,0,1,3.55,9.88Z"/>
<path fill="#000" d="M15.59,7.17a.45.45,0,0,1,.14.36.61.61,0,0,1-.17.43.64.64,0,0,1-.44.17A.54.54,0,0,1,14.74,8a.48.48,0,0,1-.13-.35.58.58,0,0,1,.17-.43A.6.6,0,0,1,15.22,7,.5.5,0,0,1,15.59,7.17Z"/>
<path fill="#000" d="M27.94,7.17a.45.45,0,0,1,.14.35.6.6,0,0,1-.17.43.6.6,0,0,1-.44.18A.54.54,0,0,1,27.09,8,.48.48,0,0,1,27,7.63a.57.57,0,0,1,.17-.43A.64.64,0,0,1,27.57,7,.46.46,0,0,1,27.94,7.17Z"/>
<path fill="#000" d="M10.6,12.73l.79-5.59h-.27a.94.94,0,0,0-.93.81l-.8,5.66h3.48l.24-.88Z"/>
<path fill="#000" d="M15.19,8.84a1,1,0,0,0-.94.81l-.55,4h1.05l.66-4.77Z"/>
<path fill="#000" d="M19.55,16.19l.89-7a4,4,0,0,0-1.82-.44,2.35,2.35,0,0,0-1.51.48,2.85,2.85,0,0,0-.88,1.22A4.31,4.31,0,0,0,16,11.89a2.17,2.17,0,0,0,.39,1.37,1.36,1.36,0,0,0,1.12.49,1.45,1.45,0,0,0,.73-.19,1.66,1.66,0,0,0,.53-.44l.14-.18-.26,2.24a.9.9,0,0,0,.25.75A1,1,0,0,0,19.55,16.19Zm-1.13-3.43a1,1,0,0,1-.59.21q-.78,0-.78-1.08a4.33,4.33,0,0,1,.16-1.12,2.3,2.3,0,0,1,.51-.94h0a1.17,1.17,0,0,1,.89-.39,1.86,1.86,0,0,1,.36,0,1.22,1.22,0,0,1,.34.11h.05L19,12.17A2.43,2.43,0,0,1,18.42,12.76Z"/>
<path fill="#000" d="M25.2,8.83a.94.94,0,0,0-.93.82l-.33,2.29a3.75,3.75,0,0,1-.59.71,1,1,0,0,1-.66.28.49.49,0,0,1-.36-.13.57.57,0,0,1-.12-.41,1.91,1.91,0,0,1,0-.28l.45-3.28h-.22a.94.94,0,0,0-.93.82l-.37,2.62a1.84,1.84,0,0,0,0,.33,1.2,1.2,0,0,0,.29.85,1.11,1.11,0,0,0,.82.29,1.42,1.42,0,0,0,.77-.19,2.67,2.67,0,0,0,.79-.73l.12-.16-.05.95h.89l.66-4.78Z"/>
<path fill="#000" d="M27.49,8.83a.94.94,0,0,0-.93.82L26,13.6h1.05l.67-4.77Z"/>
<path fill="#000" d="M33,7.1a.94.94,0,0,0-1,.81L31.8,9.32l-.09-.11a1.41,1.41,0,0,0-1.1-.52,1.8,1.8,0,0,0-1.29.49,2.94,2.94,0,0,0-.76,1.21,4.93,4.93,0,0,0-.23,1.45,2.32,2.32,0,0,0,.38,1.41,1.28,1.28,0,0,0,1.1.49,1.47,1.47,0,0,0,.8-.23,1.94,1.94,0,0,0,.61-.63l.12-.18v.9h.92l.9-6.49Zm-1.6,4.84a3.72,3.72,0,0,1-.6.76,1,1,0,0,1-.68.27c-.48,0-.72-.37-.73-1.09a4.57,4.57,0,0,1,.14-1.08A2.39,2.39,0,0,1,30,9.86a1,1,0,0,1,1.7.09l0,0Z"/>
<path fill="#46b4a5" d="M3.52,15.44A.61.61,0,0,1,3,15.18,8.41,8.41,0,0,1,9.48,1.89h0a.62.62,0,1,1,0,1.24A7.17,7.17,0,0,0,4,14.46a.62.62,0,0,1-.14.87A.66.66,0,0,1,3.52,15.44Z"/>
<path fill="#84cfc8" d="M8.8,19.7H8.74A9.51,9.51,0,0,1,1.46,5.58.43.43,0,0,1,2,5.42.41.41,0,0,1,2.19,6,8.68,8.68,0,0,0,8.82,18.87a.42.42,0,0,1,.38.46A.42.42,0,0,1,8.8,19.7Z"/>
<path fill="#46b4a5" d="M10.38,18.62h-.17a8.7,8.7,0,0,1-5.45-1.81.42.42,0,0,1-.08-.59.41.41,0,0,1,.58-.07A7.92,7.92,0,0,0,10.2,17.8a8.18,8.18,0,0,0,2.08-.31.42.42,0,0,1,.51.29.41.41,0,0,1-.28.51A8.52,8.52,0,0,1,10.38,18.62Z"/>
<path fill="#84cfc8" d="M10,17.35A.31.31,0,0,1,9.79,17a.32.32,0,0,1,.32-.3,8.87,8.87,0,0,0,4-1,.3.3,0,0,1,.42.11.31.31,0,0,1-.12.43,8.7,8.7,0,0,1-4.31,1.08Z"/>
</svg>
